<svg xmlns="http://www.w3.org/2000/svg" xmlns:xlink="http://www.w3.org/1999/xlink" version="1.1" viewBox="0 0 96 96" x="0px" y="0px" width="96px" height="96px"><path d="M76 56c-0.34 0-0.68-0.084-0.992-0.256l-27.008-15.44-27.008 15.428c-0.952 0.54-2.18 0.22-2.736-0.748-0.552-0.956-0.212-2.176 0.752-2.732l28-16c0.616-0.352 1.368-0.352 1.984 0l28 16c0.96 0.556 1.288 1.768 0.752 2.732-0.376 0.656-1.052 1.016-1.744 1.016z" fill="#000000"/><path d="M48 4c24.256 0 44 19.74 44 44 0 24.264-19.744 44-44 44s-44-19.736-44-44c0-24.26 19.744-44 44-44zM48 0c-26.508 0-48 21.492-48 48 0 26.504 21.492 48 48 48s48-21.496 48-48c0-26.508-21.492-48-48-48v0z" fill="#000000"/></svg>