<!-- Generator: Adobe Illustrator 25.2.1, SVG Export Plug-In  -->
<svg version="1.1" xmlns="http://www.w3.org/2000/svg" xmlns:xlink="http://www.w3.org/1999/xlink" x="0px" y="0px" width="72.9px"
	 height="69.2px" viewBox="0 0 72.9 69.2" style="overflow:visible;enable-background:new 0 0 72.9 69.2;" xml:space="preserve">
<style type="text/css">
	.st0{fill:#76BFBC;}
</style>
<defs>
</defs>
<g>
	<g>
		<g>
			<path class="st0" d="M65.6,46.1c-2.8,0-5.3,2-5.9,4.7c-2.3-1.4-5.3-1.4-7.6,0c-0.7-3.3-4-5.3-7.2-4.6c-2.3,0.5-4.1,2.3-4.6,4.6
				c-2.3-1.4-5.3-1.4-7.6,0c-0.7-3.3-4-5.3-7.2-4.6c-2.3,0.5-4.1,2.3-4.6,4.6c-2.3-1.4-5.3-1.4-7.6,0c-0.8-3.3-4-5.3-7.3-4.5
				c-2.7,0.6-4.7,3.1-4.7,5.9c0,0.7,0.5,1.2,1.2,1.2s1.2-0.5,1.2-1.2c0-2,1.6-3.6,3.6-3.6s3.6,1.6,3.6,3.6c0,0.2,0.1,0.4,0.2,0.6
				c-2.1,2.9-1.8,6.8,0.7,9.3c-0.5,0.2-0.9,0.4-1.2,0.8c-0.6,0.6-0.9,1.4-0.9,2.3V68c0,0.7,0.5,1.2,1.2,1.2s1.2-0.5,1.2-1.2v-2.8
				c0-0.2,0.1-0.5,0.2-0.6c0.1-0.1,0.3-0.2,0.4-0.2h8.4c0.2,0,0.3,0.1,0.4,0.2c0.2,0.2,0.2,0.4,0.2,0.6V68c0,0.7,0.5,1.2,1.2,1.2
				s1.2-0.5,1.2-1.2v-2.8c0-0.8-0.3-1.7-0.9-2.3c-0.3-0.4-0.7-0.6-1.2-0.8c2.5-2.5,2.7-6.5,0.7-9.3c0.1-0.2,0.2-0.4,0.2-0.6
				c0-2,1.6-3.6,3.6-3.6s3.6,1.6,3.6,3.6c0,0.2,0.1,0.4,0.2,0.6c-2.1,2.9-1.8,6.8,0.7,9.3c-0.5,0.2-0.9,0.4-1.2,0.8
				c-0.6,0.6-0.9,1.4-0.9,2.3V68c0,0.7,0.5,1.2,1.2,1.2s1.2-0.5,1.2-1.2v-2.8c0-0.2,0.1-0.5,0.2-0.6c0.1-0.1,0.3-0.2,0.4-0.2h8.4
				c0.2,0,0.3,0.1,0.4,0.2c0.2,0.2,0.2,0.4,0.2,0.6V68c0,0.7,0.5,1.2,1.2,1.2s1.2-0.5,1.2-1.2v-2.8c0-0.8-0.3-1.7-0.9-2.3
				c-0.3-0.4-0.7-0.6-1.2-0.8c2.5-2.5,2.7-6.5,0.7-9.3c0.1-0.2,0.2-0.4,0.2-0.6c0-2,1.6-3.6,3.6-3.6s3.6,1.6,3.6,3.6
				c0,0.2,0.1,0.4,0.2,0.6c-2.1,2.9-1.8,6.8,0.7,9.3c-0.5,0.2-0.9,0.4-1.2,0.8c-0.6,0.6-0.9,1.4-0.9,2.3V68c0,0.7,0.5,1.2,1.2,1.2
				S51,68.7,51,68v-2.8c0-0.2,0.1-0.5,0.2-0.6c0.1-0.1,0.3-0.2,0.4-0.2H60c0.2,0,0.3,0.1,0.4,0.2c0.2,0.2,0.2,0.4,0.2,0.6V68
				c0,0.7,0.5,1.2,1.2,1.2s1.2-0.5,1.2-1.2v-2.8c0-0.8-0.3-1.7-0.9-2.3c-0.3-0.4-0.7-0.6-1.2-0.8c2.5-2.5,2.7-6.5,0.7-9.3
				c0.1-0.2,0.2-0.4,0.2-0.6c0-2,1.6-3.6,3.6-3.6c2,0,3.6,1.6,3.6,3.6c0,0.7,0.5,1.2,1.2,1.2s1.2-0.5,1.2-1.2
				C71.6,48.9,68.9,46.1,65.6,46.1z M17,61.9c-2.7,0-4.9-2.2-4.9-4.9s2.2-4.9,4.9-4.9s4.9,2.2,4.9,4.9S19.7,61.9,17,61.9z
				 M36.4,61.9c-2.7,0-4.9-2.2-4.9-4.9s2.2-4.9,4.9-4.9s4.9,2.2,4.9,4.9S39.1,61.9,36.4,61.9z M55.9,61.9c-2.7,0-4.9-2.2-4.9-4.9
				s2.2-4.9,4.9-4.9s4.9,2.2,4.9,4.9S58.5,61.9,55.9,61.9z"/>
		</g>
	</g>
	<g>
		<g>
			<path class="st0" d="M17,37.6c-3.4,0-6.1,2.7-6.1,6.1c0,0.7,0.5,1.2,1.2,1.2c0.7,0,1.2-0.5,1.2-1.2c0-2,1.6-3.6,3.6-3.6
				s3.6,1.6,3.6,3.6c0,0.7,0.5,1.2,1.2,1.2s1.2-0.5,1.2-1.2C23.1,40.4,20.4,37.6,17,37.6z"/>
		</g>
	</g>
	<g>
		<g>
			<path class="st0" d="M36.4,37.6c-3.4,0-6.1,2.7-6.1,6.1c0,0.7,0.5,1.2,1.2,1.2s1.2-0.5,1.2-1.2c0-2,1.6-3.6,3.6-3.6
				s3.6,1.6,3.6,3.6c0,0.7,0.5,1.2,1.2,1.2s1.2-0.5,1.2-1.2C42.5,40.4,39.8,37.6,36.4,37.6z"/>
		</g>
	</g>
	<g>
		<g>
			<path class="st0" d="M55.9,37.6c-3.4,0-6.1,2.7-6.1,6.1c0,0.7,0.5,1.2,1.2,1.2s1.2-0.5,1.2-1.2c0-2,1.6-3.6,3.6-3.6
				s3.6,1.6,3.6,3.6c0,0.7,0.5,1.2,1.2,1.2s1.2-0.5,1.2-1.2C61.9,40.4,59.2,37.6,55.9,37.6z"/>
		</g>
	</g>
	<g>
		<g>
			<path class="st0" d="M71.6,6.1h-0.8c0-0.1-0.1-0.2-0.2-0.3l-3.4-3.4h4.4c0.7,0,1.2-0.5,1.2-1.2S72.3,0,71.6,0H1.2
				C0.5,0,0,0.5,0,1.2s0.5,1.2,1.2,1.2h1.9l3.6,3.6H1.2C0.5,6.1,0,6.6,0,7.3s0.5,1.2,1.2,1.2h1.2v4.2c-1.8,1.9-1.7,4.9,0.1,6.7
				l2.4,2.4c0.5,0.5,1.2,0.5,1.7,0l5.2-5.2c0.5-0.5,0.5-1.2,0-1.7l-2.4-2.4c-1.2-1.2-2.9-1.7-4.6-1.3V8.5h30.4v2.9
				c-0.8,0.2-1.6,0.6-2.2,1.2c-0.9,0.9-1.4,2.1-1.4,3.4v3.3c0,0.7,0.5,1.2,1.2,1.2h7.3c0.7,0,1.2-0.5,1.2-1.2v-3.3
				c0-1.3-0.5-2.5-1.4-3.4c-0.6-0.6-1.4-1-2.2-1.2V8.5H68v2.8c-1.6-0.4-3.4,0.1-4.6,1.3L61.1,15c-0.5,0.5-0.5,1.2,0,1.7l5.2,5.2
				c0.5,0.5,1.2,0.5,1.7,0l2.4-2.4c1.9-1.8,1.9-4.8,0.1-6.7V8.5h1.2c0.7,0,1.2-0.5,1.2-1.2S72.3,6.1,71.6,6.1z M6,13.6
				c0.6,0,1.3,0.3,1.7,0.7l1.5,1.5l-3.4,3.4l-1.5-1.5c-0.9-0.9-0.9-2.5,0-3.4C4.7,13.9,5.3,13.6,6,13.6z M6.6,2.4h6.3L9.7,5.6
				L6.6,2.4z M12.6,6.1l3.1-3.1l3.1,3.1H12.6z M18.7,2.4H25l-3.1,3.1L18.7,2.4z M24.8,6.1l3.1-3.1l3.1,3.1H24.8z M34,5.6l-3.1-3.1
				h6.3L34,5.6z M38.1,14.4c0.5,0.5,0.7,1.1,0.7,1.7v2.1H34v-2.1c0-1.3,1.1-2.4,2.4-2.4C37.1,13.7,37.7,13.9,38.1,14.4z M36.9,6.1
				l3.1-3.1l3.1,3.1H36.9z M43,2.4h6.3l-3.1,3.1L43,2.4z M49.1,6.1l3.1-3.1l3.1,3.1H49.1z M55.1,2.4h6.3l-3.1,3.1L55.1,2.4z
				 M61.2,6.1l3.1-3.1l3.1,3.1H61.2z M69.3,16c0,0.6-0.3,1.3-0.7,1.7l-1.5,1.5l-3.4-3.4l1.5-1.5c0.9-0.9,2.5-0.9,3.4,0
				C69,14.8,69.3,15.4,69.3,16L69.3,16z"/>
		</g>
	</g>
	<g>
		<g>
			<path class="st0" d="M71.6,32.8H1.2C0.5,32.8,0,33.3,0,34s0.5,1.2,1.2,1.2h70.4c0.7,0,1.2-0.5,1.2-1.2S72.3,32.8,71.6,32.8z"/>
		</g>
	</g>
</g>
</svg>
