<svg xmlns="http://www.w3.org/2000/svg" xmlns:xlink="http://www.w3.org/1999/xlink" version="1.1" x="0px" y="0px" viewBox="0 0 100 100" enable-background="new 0 0 100 100" xml:space="preserve" aria-hidden="true" width="100px" height="100px"><defs><linearGradient class="cerosgradient" data-cerosgradient="true" id="CerosGradient_id1a4b80b09" gradientUnits="userSpaceOnUse" x1="50%" y1="100%" x2="50%" y2="0%"><stop offset="0%" stop-color="#d1d1d1"/><stop offset="100%" stop-color="#d1d1d1"/></linearGradient><linearGradient/></defs><path fill="#000000" d="M66.221,84.489c-0.201,0-0.404-0.065-0.575-0.2L36.754,61.539c-0.214-0.169-0.343-0.423-0.354-0.697  c-0.009-0.272,0.102-0.535,0.303-0.718l28.892-26.342c0.379-0.347,0.967-0.317,1.311,0.06c0.346,0.379,0.319,0.967-0.06,1.311  L38.764,60.757l28.033,22.074c0.403,0.317,0.472,0.901,0.154,1.304C66.767,84.367,66.495,84.489,66.221,84.489z"/></svg>