<!-- Generator: Adobe Illustrator 25.2.1, SVG Export Plug-In  -->
<svg version="1.1" xmlns="http://www.w3.org/2000/svg" xmlns:xlink="http://www.w3.org/1999/xlink" x="0px" y="0px" width="68.8px"
	 height="68.8px" viewBox="0 0 68.8 68.8" style="overflow:visible;enable-background:new 0 0 68.8 68.8;" xml:space="preserve">
<style type="text/css">
	.st0{fill:#76BFBC;}
</style>
<defs>
</defs>
<g>
	<path class="st0" d="M55.2,68.8c-0.3,0-0.5,0-0.8-0.1l-27.1-7.3c-0.8-0.2-1.4-0.7-1.8-1.4c-0.4-0.7-0.5-1.5-0.3-2.3L28,47.1h-9.4
		c-1.7,0-3-1.4-3-3v-5.4c-4-2.9-5.3-5.1-5.9-7.3c-0.9-3.5,1.1-7,4.6-8c0.4-0.1,0.8-0.2,1.3-0.2V17c0-0.6,0.5-1,1-1c0.6,0,1,0.5,1,1
		v27c0,0.6,0.5,1,1,1h9.9l3.8-14c0.1-0.5,0.7-0.9,1.2-0.7c0.5,0.1,0.9,0.7,0.7,1.2l-7.2,26.7c-0.1,0.3,0,0.5,0.1,0.8
		c0.1,0.2,0.4,0.4,0.6,0.5l27.1,7.3c0.5,0.1,1.1-0.2,1.2-0.7l1-3.8c0.1-0.5,0.7-0.9,1.2-0.7c0.5,0.1,0.9,0.7,0.7,1.2l-1,3.8
		C57.7,67.9,56.5,68.8,55.2,68.8L55.2,68.8z M15.6,25.1c-0.3,0-0.5,0.1-0.8,0.1c-2.4,0.6-3.8,3.1-3.2,5.5c0.4,1.3,1,2.9,3.9,5.3
		L15.6,25.1L15.6,25.1z M59.2,59.5c-0.1,0-0.2,0-0.3,0c-0.5-0.1-0.9-0.7-0.7-1.2l8.5-31.8c0.1-0.5-0.2-1.1-0.7-1.2l-27.1-7.3
		c-0.5-0.1-1.1,0.2-1.2,0.7l-2.4,8.9c-0.1,0.5-0.7,0.9-1.2,0.7c-0.5-0.1-0.9-0.7-0.7-1.2l2.4-8.9c0.4-1.6,2.1-2.6,3.7-2.1l27.1,7.3
		c1.6,0.4,2.6,2.1,2.1,3.7l-8.5,31.8C60.1,59.2,59.7,59.5,59.2,59.5L59.2,59.5z M13.6,59.4c-1.3,0-2.6-0.9-2.9-2.2L0.1,17.5
		c-0.4-1.6,0.5-3.3,2.1-3.7l13.4-3.6V3c0-1.7,1.4-3,3-3h28.1c1.7,0,3,1.4,3,3v12.2c0,0.6-0.5,1-1,1c-0.6,0-1-0.5-1-1V3
		c0-0.6-0.5-1-1-1H18.6c-0.6,0-1,0.5-1,1v10c0,0.6-0.5,1-1,1s-1-0.5-1-1v-0.7L2.8,15.8c-0.5,0.1-0.9,0.7-0.7,1.2l10.6,39.6
		c0.1,0.5,0.7,0.9,1.2,0.7l8.6-2.3c0.5-0.1,1.1,0.2,1.2,0.7c0.1,0.5-0.2,1.1-0.7,1.2l-8.6,2.3C14.2,59.4,13.9,59.4,13.6,59.4
		L13.6,59.4z M48.9,56.1c-0.1,0-0.2,0-0.3,0l-9.9-2.7c-0.5-0.1-0.9-0.7-0.7-1.2c0.1-0.5,0.7-0.9,1.2-0.7l0.9,0.2
		c1.6-0.8,2.8-1.8,3.6-3c-0.9,0.2-2,0.3-3.2,0c-1.6-0.4-2.9-1.4-3.7-2.8c-0.8-1.4-1-3.1-0.6-4.6c0.4-1.3,1-2.9,3.2-4.9
		c2.1-1.9,5.3-4.1,10.3-6.7c0.5-0.3,1.1-0.1,1.3,0.4c2.9,4.7,4.7,8.2,5.5,10.9c0.9,2.8,0.6,4.5,0.3,5.8c-0.4,1.6-1.4,2.9-2.8,3.7
		c-1.4,0.8-3.1,1-4.6,0.6c-1.2-0.3-2.1-0.9-2.8-1.6c0.1,1.5,0.7,2.9,1.6,4.5l0.9,0.2c0.5,0.1,0.9,0.7,0.7,1.2
		C49.7,55.8,49.3,56.1,48.9,56.1L48.9,56.1z M42.8,52.5l2.7,0.7c-0.4-0.8-0.6-1.6-0.8-2.4C44.2,51.4,43.5,52,42.8,52.5L42.8,52.5z
		 M45.9,45.4c0.1,0,0.2,0,0.3,0c0.4,0.1,0.6,0.4,0.7,0.7c0,0.1,0.7,2.3,3,2.9c1.1,0.3,2.2,0.1,3.1-0.4c0.9-0.5,1.6-1.4,1.9-2.5
		c0.6-2.1,0.6-5-5.1-14.4c-9.6,5.3-11,7.8-11.6,9.9c-0.3,1.1-0.1,2.2,0.4,3.1c0.5,0.9,1.4,1.6,2.5,1.9c2.4,0.6,4.1-1,4.1-1
		C45.4,45.5,45.6,45.4,45.9,45.4L45.9,45.4z M24.4,43c-0.3,0-0.6-0.2-0.8-0.4l-2.8-3.8c-0.3-0.4-0.3-0.8,0-1.2l2.8-3.8
		c0.2-0.3,0.5-0.4,0.8-0.4c0.3,0,0.6,0.2,0.8,0.4l2.8,3.8c0.3,0.4,0.3,0.8,0,1.2l-2.8,3.8C25,42.9,24.7,43,24.4,43z M22.9,38.2
		l1.5,2.1l1.5-2.1l-1.5-2.1L22.9,38.2z M24.4,28.3c-0.3,0-0.6-0.2-0.8-0.4l-2.8-3.8c-0.3-0.4-0.3-0.8,0-1.2l2.8-3.8
		c0.2-0.3,0.5-0.4,0.8-0.4c0.3,0,0.6,0.2,0.8,0.4l2.8,3.8c0.3,0.4,0.3,0.8,0,1.2l-2.8,3.8C25,28.2,24.7,28.3,24.4,28.3z M22.9,23.5
		l1.5,2.1l1.5-2.1l-1.5-2.1L22.9,23.5z M40.9,13.6c-0.3,0-0.6-0.2-0.8-0.4l-2.8-3.8c-0.3-0.4-0.3-0.8,0-1.2l2.8-3.8
		C40.3,4.2,40.6,4,40.9,4c0.3,0,0.6,0.2,0.8,0.4l2.8,3.8c0.3,0.4,0.3,0.8,0,1.2l-2.8,3.8C41.5,13.5,41.2,13.6,40.9,13.6z M39.3,8.8
		l1.5,2.1l1.5-2.1l-1.5-2.1L39.3,8.8z M24.4,13.6c-0.3,0-0.6-0.2-0.8-0.4l-2.8-3.8c-0.3-0.4-0.3-0.8,0-1.2l2.8-3.8
		C23.8,4.2,24.1,4,24.4,4c0.3,0,0.6,0.2,0.8,0.4L28,8.2c0.3,0.4,0.3,0.8,0,1.2l-2.8,3.8C25,13.5,24.7,13.6,24.4,13.6z M22.9,8.8
		l1.5,2.1L26,8.8l-1.5-2.1L22.9,8.8z"/>
</g>
</svg>
