<svg xmlns="http://www.w3.org/2000/svg" xmlns:xlink="http://www.w3.org/1999/xlink" version="1.1" x="0px" y="0px" viewBox="0 0 54 54" enable-background="new 0 0 54 54" xml:space="preserve" width="54px" height="54px"><g><path d="M27,0C12.11,0,0,12.11,0,27s12.11,27,27,27s27-12.11,27-27S41.89,0,27,0z M27,52C13.21,52,2,40.79,2,27S13.21,2,27,2   s25,11.21,25,25S40.79,52,27,52z"/><path d="M38.29,21.59L27,32.88L15.71,21.59c-0.39-0.39-1.02-0.39-1.41,0s-0.39,1.02,0,1.41l11.5,11.5C26.12,34.83,26.56,35,27,35   c0.44,0,0.88-0.17,1.21-0.5L39.71,23c0.39-0.39,0.39-1.02,0-1.41S38.68,21.2,38.29,21.59z"/></g></svg>