<!-- Generator: Adobe Illustrator 25.2.1, SVG Export Plug-In  -->
<svg version="1.1" xmlns="http://www.w3.org/2000/svg" xmlns:xlink="http://www.w3.org/1999/xlink" x="0px" y="0px" width="64.7px"
	 height="64.7px" viewBox="0 0 64.7 64.7" style="overflow:visible;enable-background:new 0 0 64.7 64.7;" xml:space="preserve">
<style type="text/css">
	.st0{fill:#76BFBC;}
</style>
<defs>
</defs>
<g>
	<path class="st0" d="M32.3,27c-5.9,0-10.8-4.8-10.8-10.8S26.4,5.4,32.3,5.4s10.8,4.8,10.8,10.8S38.3,27,32.3,27z M32.3,9.4
		c-3.7,0-6.7,3-6.7,6.7s3,6.7,6.7,6.7s6.7-3,6.7-6.7S36.1,9.4,32.3,9.4z"/>
	<path class="st0" d="M51.9,53.9c-1.1,0-2-0.9-2-2v-6.7c0-4.8-3.9-8.8-8.8-8.8H23.6c-4.8,0-8.8,3.9-8.8,8.8v6.7c0,1.1-0.9,2-2,2
		s-2-0.9-2-2v-6.7c0-7.1,5.7-12.8,12.8-12.8h17.5c7.1,0,12.8,5.7,12.8,12.8v6.7C53.9,53,53,53.9,51.9,53.9z"/>
	<path class="st0" d="M2,17.5c-1.1,0-2-0.9-2-2V7.4C0,3.3,3.3,0,7.4,0h8.1c1.1,0,2,0.9,2,2s-0.9,2-2,2H7.4C5.6,4,4,5.6,4,7.4v8.1
		C4,16.6,3.1,17.5,2,17.5z"/>
	<path class="st0" d="M15.5,64.7H7.4c-4.1,0-7.4-3.3-7.4-7.4v-8.1c0-1.1,0.9-2,2-2s2,0.9,2,2v8.1c0,1.9,1.5,3.4,3.4,3.4h8.1
		c1.1,0,2,0.9,2,2S16.6,64.7,15.5,64.7z"/>
	<path class="st0" d="M62.7,17.5c-1.1,0-2-0.9-2-2V7.4c0-1.9-1.5-3.4-3.4-3.4h-8.1c-1.1,0-2-0.9-2-2s0.9-2,2-2h8.1
		c4.1,0,7.4,3.3,7.4,7.4v8.1C64.7,16.6,63.8,17.5,62.7,17.5z"/>
	<path class="st0" d="M57.3,64.7h-8.1c-1.1,0-2-0.9-2-2s0.9-2,2-2h8.1c1.9,0,3.4-1.5,3.4-3.4v-8.1c0-1.1,0.9-2,2-2s2,0.9,2,2v8.1
		C64.7,61.4,61.4,64.7,57.3,64.7z"/>
</g>
</svg>
