<!-- Generator: Adobe Illustrator 25.2.1, SVG Export Plug-In  -->
<svg version="1.1" xmlns="http://www.w3.org/2000/svg" xmlns:xlink="http://www.w3.org/1999/xlink" x="0px" y="0px" width="69.3px"
	 height="72.8px" viewBox="0 0 69.3 72.8" style="overflow:visible;enable-background:new 0 0 69.3 72.8;" xml:space="preserve">
<style type="text/css">
	.st0{fill:#76BFBC;}
</style>
<defs>
</defs>
<g>
	<path class="st0" d="M68.8,41.9l-1.9-1.1L46.4,0.6c-0.3-0.5-0.9-0.7-1.4-0.4c0,0,0,0,0,0l-9.6,5C35,5.4,34.8,6,35,6.5c0,0,0,0,0,0
		c1.4,2.4,0.5,5.5-1.9,6.9s-5.5,0.5-6.9-1.9c0,0,0-0.1-0.1-0.1c-0.3-0.5-0.9-0.7-1.4-0.4c0,0,0,0,0,0l-5.4,3.1l-1.6-0.9
		c-0.5-0.3-1.1-0.1-1.4,0.4l-5,8.8c-0.3,0.5-0.1,1.1,0.4,1.4c2.4,1.4,3.3,4.4,1.9,6.9S9.4,33.9,7,32.5c-0.5-0.3-1.1-0.1-1.4,0.4
		l-5.4,9.7C-0.1,43,0,43.7,0.5,43.9l51,28.7c0.5,0.3,1.1,0.1,1.4-0.4l5.4-9.7c0.3-0.5,0.1-1.1-0.4-1.4c-2.4-1.4-3.3-4.4-1.9-6.9
		c1.4-2.4,4.4-3.3,6.9-1.9c0.5,0.3,1.1,0.1,1.4-0.4l5-8.8C69.5,42.8,69.3,42.2,68.8,41.9z M25,13.2c2.3,3.1,6.8,3.8,9.9,1.4
		c2.5-1.9,3.5-5.2,2.4-8.2l7.9-4.1l4.7,9.2l-2.6,1.3c-0.5,0.2-0.7,0.9-0.5,1.4c0.2,0.5,0.9,0.7,1.4,0.5c0,0,0,0,0,0l2.6-1.3l13,25.7
		l-11.8-6.7l-5.2-9.7c-0.3-0.5-0.9-0.7-1.4-0.4s-0.7,0.9-0.4,1.4l3.7,6.9L21.5,15.2L25,13.2z M62.9,50.3c-3.6-1.4-7.7,0.4-9.1,4
		c-1.1,2.9-0.2,6.2,2.3,8.1l-4.5,8l-8.8-5l1.5-2.6c0.3-0.5,0.1-1.1-0.4-1.4s-1.1-0.1-1.4,0.4L41,64.5L2.4,42.7l4.5-8
		c3.6,1.4,7.7-0.4,9.1-4c1.1-2.9,0.2-6.2-2.3-8.1l4-7.1l38.7,21.8l-1.5,2.6c-0.3,0.5-0.1,1.1,0.4,1.4c0.5,0.3,1.1,0.1,1.4-0.4
		l1.5-2.6l8.8,5L62.9,50.3z"/>
	<path class="st0" d="M54.3,43c-0.5-0.3-1.1-0.1-1.4,0.4L51.4,46c-0.3,0.5-0.1,1.1,0.4,1.4s1.1,0.1,1.4-0.4l1.5-2.6
		C55,43.9,54.8,43.3,54.3,43z"/>
	<path class="st0" d="M50.8,49.1c-0.5-0.3-1.1-0.1-1.4,0.4L48,52.2c-0.3,0.5-0.1,1.1,0.4,1.4c0.5,0.3,1.1,0.1,1.4-0.4l1.5-2.6
		C51.5,50,51.3,49.4,50.8,49.1z"/>
	<path class="st0" d="M47.4,55.3c-0.5-0.3-1.1-0.1-1.4,0.4l-1.5,2.6c-0.3,0.5-0.1,1.1,0.4,1.4s1.1,0.1,1.4-0.4l1.5-2.6
		C48,56.2,47.9,55.6,47.4,55.3z"/>
	<path class="st0" d="M49.1,37.8L23.7,23.4c-0.5-0.3-1.1-0.1-1.4,0.4l-6.4,11.4c-0.3,0.5-0.1,1.1,0.4,1.4l25.5,14.4
		c0.5,0.3,1.1,0.1,1.4-0.4l6.4-11.4C49.8,38.7,49.6,38,49.1,37.8z M41.8,48.7L18.1,35.3l5.4-9.7L47.3,39L41.8,48.7z"/>
	<path class="st0" d="M40.7,52.7L15.2,38.3c-0.5-0.3-1.1-0.1-1.4,0.4c-0.3,0.5-0.1,1.1,0.4,1.4l25.5,14.4c0.5,0.3,1.1,0.1,1.4-0.4
		S41.2,53,40.7,52.7z"/>
	<path class="st0" d="M38.7,56.2L13.3,41.9c-0.5-0.3-1.1-0.1-1.4,0.4c-0.3,0.5-0.1,1.1,0.4,1.4L37.8,58c0.5,0.3,1.1,0.1,1.4-0.4
		S39.2,56.5,38.7,56.2z"/>
	<path class="st0" d="M45.3,14.9c-0.3-0.5-0.9-0.7-1.4-0.4l-3.2,1.6c-0.5,0.2-0.7,0.9-0.5,1.4s0.9,0.7,1.4,0.5c0,0,0,0,0,0l3.2-1.6
		C45.3,16,45.5,15.4,45.3,14.9L45.3,14.9z"/>
	<path class="st0" d="M38.8,18.2c-0.3-0.5-0.9-0.7-1.4-0.4l-3.2,1.6c-0.5,0.2-0.7,0.9-0.5,1.4s0.9,0.7,1.4,0.5c0,0,0,0,0,0l3.2-1.6
		C38.8,19.3,39,18.7,38.8,18.2L38.8,18.2z"/>
	<path class="st0" d="M48.6,21.1l6.2,11.6c0.3,0.5,0.9,0.7,1.4,0.4c0.5-0.3,0.7-0.9,0.4-1.4l-6.2-11.6c-0.3-0.5-0.9-0.7-1.4-0.4
		S48.4,20.6,48.6,21.1z"/>
</g>
</svg>
