<!-- Generator: Adobe Illustrator 25.2.1, SVG Export Plug-In  -->
<svg version="1.1" xmlns="http://www.w3.org/2000/svg" xmlns:xlink="http://www.w3.org/1999/xlink" x="0px" y="0px" width="103.6px"
	 height="74.2px" viewBox="0 0 103.6 74.2" style="overflow:visible;enable-background:new 0 0 103.6 74.2;" xml:space="preserve">
<style type="text/css">
	.st0{fill:#76BFBC;}
</style>
<defs>
</defs>
<path class="st0" d="M12.4,44.1c-0.9,0.4-1.3,1.5-0.9,2.4l4.1,8.7c0.2,0.4,0.6,0.8,1,0.9c0.2,0.1,0.4,0.1,0.6,0.1
	c0.3,0,0.5-0.1,0.8-0.2l30.8-14.4l-2.8,29.2c-0.1,0.6,0.2,1.1,0.6,1.5c1.3,1.1,3,1.8,4.8,1.8c0.5,0,1-0.1,1.4-0.2
	c2.5-0.7,4.4-2.9,5.8-6.7l12.1-35.9l24-11.2c7.1-3.3,10.7-10,8.3-15.2c-1.4-2.7-4-4.6-7.1-4.9c-3.4-0.5-6.8,0-9.9,1.5l-27.7,13
	L28.4,3c-3.7-1.4-6.7-1.4-8.8,0.1c-1.7,1.4-2.7,3.6-2.7,5.8c0,0.6,0.3,1.1,0.8,1.4l20,13.8l-11.5,5.4L7,24.8c-0.8-0.2-1.6,0.2-2,0.9
	l-4.8,8.6c-0.2,0.5-0.3,1-0.1,1.5c0.2,0.5,0.6,0.9,1,1.1l14.2,5.9L12.4,44.1z M20.6,8.1c0.1-0.8,0.5-1.5,1.1-2
	c1-0.7,2.9-0.6,5.4,0.3l26.5,10.3l-12.1,5.6L20.6,8.1z M4.3,34.3l3.2-5.6L26,33.3c0.4,0.1,0.8,0.1,1.2-0.1L87.4,5
	c2.4-1.2,5.1-1.6,7.7-1.2C97,4,98.7,5,99.6,6.7c1.5,3.3-1.5,8-6.5,10.4l-20.9,9.8l1.3-3.7c0.3-1-0.2-2-1.2-2.3c-1-0.3-2,0.2-2.3,1.2
	L55.1,66.3c-0.9,2.5-2,4-3.2,4.3c-0.8,0.1-1.6,0-2.2-0.4l3.6-38c0.1-1-0.6-1.9-1.6-2c-1-0.1-1.9,0.6-2,1.6l-0.6,5.8L18,52.1
	l-2.6-5.4l5.1-2.4c0.7-0.3,1.1-0.9,1.1-1.7c0-0.7-0.4-1.4-1.1-1.7L4.3,34.3z"/>
</svg>
