<!-- Generator: Adobe Illustrator 25.2.1, SVG Export Plug-In  -->
<svg version="1.1" xmlns="http://www.w3.org/2000/svg" xmlns:xlink="http://www.w3.org/1999/xlink" x="0px" y="0px" width="36.3px"
	 height="36.3px" viewBox="0 0 36.3 36.3" style="overflow:visible;enable-background:new 0 0 36.3 36.3;" xml:space="preserve">
<style type="text/css">
	.st0{fill:#54AFAB;}
</style>
<defs>
</defs>
<g>
	<g>
		<g>
			<path class="st0" d="M18.1,0C8.1,0,0,8.1,0,18.1s8.1,18.1,18.1,18.1s18.1-8.1,18.1-18.1S28.1,0,18.1,0z M18.1,33.5
				c-8.5,0-15.3-6.9-15.3-15.3S9.7,2.8,18.1,2.8c8.5,0,15.3,6.9,15.3,15.3S26.6,33.5,18.1,33.5z"/>
		</g>
	</g>
	<g>
		<g>
			<path class="st0" d="M26.2,20.1l-7-7c-0.5-0.5-1.4-0.5-2,0l-7,7c-0.5,0.5-0.5,1.3,0,1.8c0.5,0.6,1.4,0.7,2,0.2l6-6l6,6
				c0.5,0.5,1.4,0.5,2,0C26.7,21.5,26.7,20.6,26.2,20.1z"/>
		</g>
	</g>
</g>
</svg>
