<svg xmlns="http://www.w3.org/2000/svg" xmlns:xlink="http://www.w3.org/1999/xlink" version="1.1" x="0px" y="0px" viewBox="0 0 100 100" enable-background="new 0 0 100 100" xml:space="preserve" width="100px" height="100px"><path d="M66.999,45.71c-0.941,0-1.829,0.222-2.625,0.606c-0.653-2.641-3.036-4.606-5.875-4.606c-1.214,0-2.343,0.362-3.292,0.979  c-1.056-1.78-2.992-2.979-5.208-2.979c-0.869,0-1.694,0.188-2.442,0.519V29.34c0-3.34-2.718-6.058-6.058-6.058  S35.441,26,35.441,29.34v20.293c-5.254,3.246-8.25,7.986-8.25,13.135c0,12.646,10.288,22.933,22.933,22.933  s22.933-10.287,22.933-22.933v-11C73.057,48.427,70.34,45.71,66.999,45.71z M69.441,62.768c0,10.651-8.666,19.317-19.317,19.317  s-19.317-8.666-19.317-19.317c0-3.225,1.66-6.288,4.634-8.711v5.461c0,0.998,0.81,1.808,1.808,1.808s1.808-0.81,1.808-1.808V29.34  c0-1.347,1.095-2.441,2.442-2.441s2.442,1.095,2.442,2.441v30.178c0,0.998,0.81,1.808,1.808,1.808s1.808-0.81,1.808-1.808v-13.75  c0-1.347,1.095-2.442,2.442-2.442s2.442,1.096,2.442,2.442c0,0.007,0.002,0.013,0.002,0.02v13.73c0,0.998,0.809,1.808,1.808,1.808  s1.808-0.81,1.808-1.808v-11.75c0-1.347,1.096-2.442,2.44-2.442c1.347,0,2.442,1.096,2.442,2.442v11.75  c0,0.998,0.809,1.808,1.808,1.808s1.808-0.81,1.808-1.808v-7.75c0-1.347,1.096-2.442,2.442-2.442s2.442,1.096,2.442,2.442V62.768z   M31.422,38.46c0.387,0,0.777-0.123,1.107-0.379c0.789-0.612,0.932-1.748,0.32-2.537c-1.498-1.931-2.29-4.243-2.29-6.687  c0-6.033,4.908-10.941,10.941-10.941s10.941,4.908,10.941,10.941c0,1.93-0.513,3.828-1.482,5.49  c-0.502,0.863-0.211,1.97,0.652,2.473c0.861,0.502,1.969,0.213,2.473-0.65c1.291-2.215,1.973-4.743,1.973-7.313  c0-8.027-6.53-14.557-14.557-14.557S26.943,20.83,26.943,28.857c0,3.254,1.055,6.333,3.05,8.903  C30.349,38.22,30.883,38.461,31.422,38.46z"/></svg>