<!-- Generator: Adobe Illustrator 25.2.1, SVG Export Plug-In  -->
<svg version="1.1" xmlns="http://www.w3.org/2000/svg" xmlns:xlink="http://www.w3.org/1999/xlink" x="0px" y="0px" width="81.4px"
	 height="81.4px" viewBox="0 0 81.4 81.4" style="overflow:visible;enable-background:new 0 0 81.4 81.4;" xml:space="preserve">
<style type="text/css">
	.st0{fill:#76BFBC;}
</style>
<defs>
</defs>
<g>
	<circle class="st0" cx="58.3" cy="59.8" r="1.4"/>
	<circle class="st0" cx="58.3" cy="54.5" r="1.4"/>
	<circle class="st0" cx="58.3" cy="65.2" r="1.4"/>
	<path class="st0" d="M78.6,50.5c-0.3-2.8-1.4-5-4-6.6c-1.9-1.1-3.3-1.3-10.3-3V39c5.4-1.2,9.4-4.4,11.5-9.3
		c1.6-3.6,1.8-6.8,1.8-10.5c0-3.6-1-7.1-2.9-10.1c-0.3-0.6-1.1-0.7-1.6-0.4c-0.6,0.3-0.7,1.1-0.4,1.6c1.6,2.7,2.5,5.7,2.5,8.8
		c0,0.3,0,0.7,0,0.8c0.1,3.1-0.3,12.9-9.6,16.2c3.4-2.4,5.6-6.3,5.6-10.7c2.1-0.5,3.7-2.2,3.7-4.1c0-2-1.6-3.7-3.7-4.1v-0.2
		c0-1.6-1.2-3-2.8-3.1c-0.1,0-2.5,0-4.8-2.5c-1-1-2.5-1.1-3.6-0.2c-4.2,3.4-10,4.3-12.2,4.5c-0.9,0.1-1.7,0.6-2.2,1.4
		c-2.3,0.3-4.1,2.1-4.1,4.2c0,2,1.6,3.7,3.7,4.1c0,4.3,2,8,5.1,10.4c-8.6-3.5-8.9-12.8-8.8-15.8c0-0.1,0-0.4,0-0.8
		c0-14.4,17.1-22.2,28-12.8c0.5,0.4,1.3,0.4,1.7-0.1c0.4-0.5,0.4-1.3-0.1-1.7C61-3.9,45.4-0.3,40.4,12c-0.7-4.5-3.3-7.1-6.3-7.7
		c-6.3-5.8-15.9-5.7-22.1,0c-0.9,0.2-2.9,0.8-4.4,3C5.5,10.2,5,14.6,6.3,20.4c0,0,0,0.1,0,0.1c-0.8,2.4,0.8,4.9,3.5,5.4
		c0,1.6,0.2,2.7,0.6,3.8c1.7,5.7,6.6,8,6.7,8v2.1l-2.7,1.7c-4.2,1-6.5,1.4-8.3,2.8C3.9,46,3,48.1,2.7,50.5C-0.2,76.5,0,74.8,0,75.7
		c0,1.5,0.6,3.1,1.6,4.1c1,1,2.4,1.6,4,1.6h9.1c0.7,0,1.2-0.5,1.2-1.2c0-0.7-0.5-1.2-1.2-1.2h-3.1l1.2-22.4c0-0.7-0.5-1.2-1.1-1.3
		c-0.7,0-1.2,0.5-1.3,1.1L9.2,79c-2.8-0.2-4.6,0.4-5.8-0.8c-0.8-0.8-1-2-0.9-3.2c2.8-25.1,2.7-24.1,2.9-25.2
		c0.3-1.6,1.2-2.9,2.7-3.8c1.4-0.8,2.7-1,3-1.1l3.4,5.7c3.9,6.5,13.3,6.5,17.3,0l3.5-5.7c0.2,0.1,2.3,0.4,3.9,1.8
		c-1.5,2.4-1.1,3.9-2.8,18.1l-0.4-8.3c0-0.7-0.6-1.2-1.3-1.1c-0.7,0-1.2,0.6-1.1,1.3L34.7,79H20.2c-0.7,0-1.2,0.5-1.2,1.2
		s0.5,1.2,1.2,1.2c6.6,0,24,0,29.9,0c0.7,0,1.2-0.5,1.2-1.2S50.8,79,50.2,79h-3.4l1.2-22.4c0-0.7-0.5-1.2-1.1-1.3
		c-0.7,0-1.2,0.5-1.3,1.1L44.3,79c-3.5-0.1-5,0.4-6.1-1.2c-0.4-0.5-0.6-1.2-0.6-2.1c0-0.4,2.7-25.5,3.1-26.8c1.3-3.7,5.4-4,8.1-4.7
		c3.1,3.8,3,3.6,3.2,4c3.5,3.9,9.7,3.7,13-0.4l2.9-3.6c2.3,0.6,3.8,0.7,5.4,1.7c0.1,0,0.1,0.1,0.2,0.1c1.9,1.3,2.5,2.8,2.8,4.8
		C79.2,77.6,79,74.2,79,75.7c0,0.7-0.2,1.7-0.9,2.4c-1.3,1.3-3,0.7-5.8,0.8l-1.2-22.5c0-0.7-0.6-1.2-1.3-1.1c-0.7,0-1.2,0.6-1.1,1.3
		L69.9,79H55.7c-0.7,0-1.2,0.5-1.2,1.2s0.5,1.2,1.2,1.2h20.1c3.5,0,5.6-2.6,5.6-5.7C81.4,74.7,81.5,76.1,78.6,50.5z M71.1,19.7
		c1.7,0.7,1.7,2.6,0,3.3V19.7z M45.1,23c-1.7-0.7-1.7-2.6,0-3.3V23z M47.5,26.4c-0.1-0.8,0-7.1,0-7.8c0-0.2,0.2-0.4,0.4-0.4
		c3.1-0.3,9-1.3,13.6-5c0.1-0.1,0.3-0.1,0.4,0c1.2,1.3,3.4,2.9,6.4,3.2c0.4,0,0.7,0.3,0.7,0.7c0,1.6,0,5.7,0,7.4
		c-0.1,0.4,0.4,3.4-1.4,6.4c-0.2,0.4-0.2,0.4-0.2,0.3c-0.9,1.4-1.9,2.4-3.4,3.4c-0.9,0.6-1.7,0.9-1.7,0.8c-4.2,1.7-7.6,0.1-7.7,0.1
		C47.8,33,47.5,26.4,47.5,26.4z M33.7,7.5C33.8,7.3,34,7,34.1,6.8c4.2,1.4,4.5,7,3.8,11.4c-0.4-0.3-0.9-0.4-1.5-0.6c0-0.5,0-0.8,0-1
		c-0.2-2-1.4-3.7-3.1-4.8c-0.1-0.1-0.5-0.4-0.8-0.9C31.8,9.7,32.7,8.9,33.7,7.5L33.7,7.5z M36.4,23.5V20
		C38.2,20.8,38.2,22.7,36.4,23.5z M9.9,23.5c-1.8-0.8-1.8-2.7,0-3.4V23.5z M9.9,16.8L9.9,16.8c0,0.1,0,0.4,0,0.7
		c-0.6,0.1-1.1,0.3-1.6,0.6C7.6,14,8,10.7,9.5,8.7c0.9-1.3,2-1.8,2.7-2c1.2,2.1,2.4,2.8,1.7,4.1c-0.3,0.5-0.7,0.9-0.8,0.9
		c-0.2,0.1-0.4,0.3-0.5,0.3C11,13.2,9.9,14.9,9.9,16.8z M12.7,29.1c0-0.1-0.2-0.6-0.2-0.8c0-0.2-0.2-0.8-0.2-1.8c0-0.7,0-9.9,0-9.7
		c0-0.1,0-1.8,2-3c0,0,0.1-0.1,0.1-0.1c1.9-1.4,2.7-3.9,1.1-6.2c-0.1-0.2-0.9-1.2-1.3-1.9c5.1-4.2,12.6-4.3,17.8,0
		c-0.1,0.2-0.3,0.5-0.6,0.9l0,0c-0.3,0.5-0.6,0.9-0.7,1c-1.8,2.6-0.3,5.1,1.1,6.2c0,0,0.1,0.1,0.1,0.1c0.1,0.1,0.3,0.2,0.4,0.3
		c1.7,1.3,1.7,3,1.6,2.7c0,0,0,0,0,0.1c0,0,0,0,0,0c0,10.7,0.1,10.4-0.5,12.2c-0.2-0.4-0.5-0.6-0.9-0.8c-0.8-0.3-2-0.9-2.8-1.7
		c-1.8-1.8-4.5-3-6.7-1.9c-2.2-1.2-4.9,0.1-6.7,1.9c-0.8,0.8-2,1.4-2.8,1.7C13.2,28.5,12.9,28.7,12.7,29.1z M30.3,29.9
		C27,31,24.8,29.3,24,28.6c-0.5-0.6-1.4-0.6-1.8,0c-0.7,0.7-3,2.3-6.3,1.2c0.7-0.4,1.5-0.9,2.2-1.6c1-1,2.9-2.2,4.1-1.3
		c0.4,0.5,0.9,0.4,0.9,0.4c0.4,0,0.7-0.2,0.9-0.4c1.2-0.9,3.1,0.3,4.1,1.3C28.8,29,29.6,29.5,30.3,29.9z M13.8,31.6
		c3.3,1.6,6.6,1.3,9.3-0.6c2.7,1.9,6,2.3,9.3,0.6c-1.9,3.4-5.4,4.5-5,4.4C22.5,38.1,16.4,36.1,13.8,31.6z M28.2,42.1l1.5,0.9
		l-3.3,5.5l-1.7-1.3L28.2,42.1z M23.1,45.4l-3.6-5.3v-1.3c2.3,0.7,4.8,0.7,7.2,0v1.4L23.1,45.4z M18,42.1l3.5,5.1l-1.7,1.3l-3.3-5.5
		L18,42.1z M29.7,49.3c-3,5-10.2,4.9-13.2,0l-3-5l0.8-0.2l3.5,5.8c0.4,0.7,1.2,1.1,2,1.1c1.2,0,1.7-0.8,3.4-2l1.9,1.5
		c1.1,0.8,2.7,0.5,3.4-0.6l3.5-5.8l0.8,0.2L29.7,49.3z M40.7,44.8c-2.6-2.3-5.6-2.3-8.8-3.3l-2.7-1.7v-2c7.6-3.7,7.3-11.8,7.3-11.8
		c1.2-0.3,2.2-0.9,2.8-1.7c1.2,8.1,5.9,13.2,13.1,14.8v1.8C46.5,42.5,43.4,42.5,40.7,44.8z M54.2,47h8.3
		C60.2,49.1,56.5,49.1,54.2,47z M64.6,44.6H52.1l-0.8-1c2.1-0.5,2-0.5,2.2-0.6c0.7-0.3,1.1-1.1,1.1-2v-2.8c2.1,0.6,4.7,0.6,7.2-0.1
		v3c0,1.1,0.7,1.9,1.3,2.1l2.1,0.5L64.6,44.6z"/>
</g>
</svg>
